<?xml version="1.0" encoding="UTF-8"?>
<svg id="Layer_1" xmlns="http://www.w3.org/2000/svg" version="1.1" viewBox="0 0 300.6 185.8">
  <!-- Generator: Adobe Illustrator 30.1.0, SVG Export Plug-In . SVG Version: 2.1.1 Build 136)  -->
  <defs>
    <style>
      .st0 {
        fill: #a1c861;
      }

      .st1 {
        fill: #fff;
      }

      .st2 {
        fill: #0668b3;
      }

      .st3 {
        fill: #987bb8;
      }

      .st4 {
        fill: #c4e2e8;
      }
    </style>
  </defs>
  <path class="st1" d="M28.1,89.8c1.5,1.5,3.4,2.2,5.8,2.2s4.3-.7,5.8-2.2,2.2-3.5,2.2-6-.7-4.5-2.2-6-3.4-2.2-5.8-2.2-4.3.7-5.8,2.2-2.2,3.5-2.2,6,.7,4.5,2.2,6M41.9,67h10.1v33.6h-10.1v-3.2c-2.4,2.7-5.7,4.1-10,4.1s-8.2-1.7-11.4-5.1c-3.1-3.4-4.7-7.6-4.7-12.6s1.6-9.2,4.7-12.6,6.9-5.1,11.4-5.1,7.6,1.4,10,4.1v-3.2Z"/>
  <path class="st1" d="M68.6,76.8c0,.7.6,1.2,1.7,1.6s2.5.9,4.1,1.3,3.2,1,4.8,1.6c1.6.7,3,1.8,4.1,3.3s1.7,3.5,1.7,5.8c0,3.6-1.3,6.4-4,8.2-2.7,1.9-6,2.8-10,2.8-7.1,0-11.9-2.7-14.5-8l8.7-5c.9,2.6,2.8,4,5.7,4s3.6-.7,3.6-2.1-.6-1.2-1.7-1.7c-1.1-.4-2.5-.9-4.1-1.3s-3.2-1-4.8-1.7c-1.6-.7-3-1.8-4.1-3.3s-1.7-3.3-1.7-5.5c0-3.5,1.3-6.2,3.8-8.1,2.5-1.9,5.7-2.9,9.4-2.9s5.3.6,7.6,1.9c2.3,1.2,4.1,3,5.5,5.3l-8.6,4.6c-1.1-2-2.6-3-4.5-3s-2.8.6-2.8,1.9"/>
  <path class="st1" d="M98.7,80.3h14.5c-1-3.5-3.4-5.3-7.1-5.3s-6.3,1.8-7.3,5.3M98.9,87.9c1.2,3.1,3.9,4.7,8.1,4.7s4.9-.9,6.5-2.6l8.1,4.6c-3.3,4.6-8.2,6.9-14.7,6.9s-10.2-1.7-13.6-5c-3.4-3.4-5.1-7.6-5.1-12.7s1.7-9.3,5-12.7c3.3-3.4,7.6-5.1,12.9-5.1s9,1.7,12.2,5.1c3.3,3.4,4.9,7.6,4.9,12.7s0,2.8-.4,4h-23.9Z"/>
  <path class="st1" d="M148.6,66.1c3.6,0,6.6,1.2,9,3.7s3.6,5.9,3.6,10.2v20.7h-10.1v-19.2c0-2-.6-3.5-1.6-4.5-1.1-1.1-2.5-1.6-4.2-1.6s-3.5.6-4.6,1.7c-1.1,1.2-1.7,2.9-1.7,5.2v18.4h-10.1v-47.1h10.1v16.6c2-2.7,5.2-4.1,9.6-4.1"/>
  <polygon class="st0" points="178.3 34.4 169.7 39.4 177.8 53.6 161.5 53.6 161.5 63.6 177.8 63.6 180.7 58.6 186.5 48.5 178.3 34.4"/>
  <polygon class="st4" points="195.2 53.6 203.4 39.4 194.7 34.4 186.5 48.5 189.4 53.6 192.3 58.6 195.2 63.6 211.6 63.6 211.6 53.6 195.2 53.6"/>
  <polygon class="st3" points="195.2 63.6 189.4 63.6 177.8 63.6 169.7 77.8 178.3 82.8 186.5 68.6 194.7 82.8 203.4 77.8 195.2 63.6"/>
  <polygon class="st2" points="183.6 53.6 177.9 63.6 183.6 63.6 195.2 63.6 192.3 58.6 186.5 48.5 183.6 53.6"/>
  <path class="st1" d="M148.6,138c3.6,0,6.6-1.2,9-3.7s3.6-5.9,3.6-10.2v-20.7h-10.1v19.2c0,2-.6,3.5-1.6,4.5s-2.5,1.6-4.2,1.6-3.5-.6-4.6-1.7c-1.1-1.2-1.7-2.9-1.7-5.2v-18.4h-10.1v47.1h10.1v-16.6c2,2.7,5.2,4.1,9.6,4.1"/>
  <path class="st1" d="M239.4,129.6h14.2c-1-3.4-3.3-5.2-7-5.2s-6.2,1.7-7.2,5.2M239.6,137c1.1,3.1,3.8,4.6,7.9,4.6s4.8-.8,6.4-2.5l7.9,4.6c-3.3,4.5-8.1,6.8-14.4,6.8s-10-1.7-13.3-5-5-7.5-5-12.5,1.7-9.1,5-12.4,7.5-5,12.7-5,8.8,1.7,12,5c3.2,3.3,4.8,7.5,4.8,12.5s-.1,2.7-.4,4h-23.6Z"/>
  <rect class="st1" x="262.7" y="103.4" width="9.6" height="47.2"/>
  <g>
    <polygon class="st1" points="195.8 136.5 198.1 138.9 198.1 128.8 195.8 130.4 195.8 136.5"/>
    <path class="st1" d="M197,150.5v-10.6l-2.8-3v-7.1l2.8-2v-10.9h-9v3.2c-2.4-2.7-5.7-4.1-10-4.1s-8.2,1.7-11.4,5.1c-3.1,3.4-4.7,7.6-4.7,12.6s1.6,9.2,4.7,12.6c3.1,3.4,6.9,5.1,11.4,5.1s7.6-1.4,10-4.1v3.2h9ZM185.8,139.7c-1.5,1.5-3.4,2.2-5.8,2.2s-4.3-.7-5.8-2.2-2.2-3.5-2.2-6,.7-4.5,2.2-6,3.4-2.2,5.8-2.2,4.3.7,5.8,2.2,2.2,3.5,2.2,6-.7,4.5-2.2,6Z"/>
  </g>
  <path class="st1" d="M226.2,119.6c-2.4-2.5-5.4-3.7-9-3.7s-7.6,1.4-9.6,4.1v-3.2h-8.8v11.4l-1.3.9v9.1l1.3,1.3v11h8.9v-18.4c0-2.3.6-4,1.7-5.2,1.1-1.2,2.6-1.7,4.6-1.7s3.1.5,4.2,1.6c1.1,1.1,1.6,2.6,1.6,4.5v19.2h10.1v-20.7c0-4.4-1.2-7.8-3.6-10.2h0Z"/>
</svg>